<svg width="160" height="120" viewBox="0 0 160 120" xmlns="http://www.w3.org/2000/svg">
<g transform="scale(0.8) translate(18, 12)">
  <!-- Left Wing -->
  <g class="wing left-wing">
    <ellipse cx="25" cy="60" rx="20" ry="35" fill="#E0F7FA" stroke="#99CED3" stroke-width="2"/>
    <!-- Veins -->
    <line x1="25" y1="25" x2="25" y2="95" stroke="#99CED3" stroke-width="1"/>
    <line x1="15" y1="40" x2="35" y2="60" stroke="#99CED3" stroke-width="1"/>
    <line x1="15" y1="80" x2="35" y2="60" stroke="#99CED3" stroke-width="1"/>
  </g>

  <!-- Right Wing (true mirror of left) -->
  <g class="wing right-wing" transform="scale(-1,1) translate(-270,0)">
    <ellipse cx="135" cy="60" rx="20" ry="35" fill="#E0F7FA" stroke="#99CED3" stroke-width="2"/>
    <!-- Veins mirrored -->
    <line x1="135" y1="25" x2="135" y2="95" stroke="#99CED3" stroke-width="1"/>
    <line x1="145" y1="40" x2="125" y2="60" stroke="#99CED3" stroke-width="1"/>
    <line x1="145" y1="80" x2="125" y2="60" stroke="#99CED3" stroke-width="1"/>
  </g>

  <!-- Body -->
  <ellipse cx="80" cy="60" rx="50" ry="55" fill="#e80e0e" stroke="#333" stroke-width="3" />

  <!-- Antennae -->
  <line x1="60" y1="10" x2="50" y2="0" stroke="#333" stroke-width="3" />
  <line x1="100" y1="10" x2="110" y2="0" stroke="#333" stroke-width="3" />
  <circle cx="50" cy="0" r="3" fill="#333" />
  <circle cx="110" cy="0" r="3" fill="#333" />

  <!-- Eyes -->
  <circle cx="60" cy="45" r="12" fill="white" stroke="#333" stroke-width="2" />
  <circle cx="100" cy="45" r="12" fill="white" stroke="#333" stroke-width="2" />
  <circle cx="60" cy="45" r="5" fill="#333" />
  <circle cx="100" cy="45" r="5" fill="#333" />

  <!-- Sad mouth -->
  <path d="M60,80 Q80,65 100,80" stroke="#333" stroke-width="4" fill="none" stroke-linecap="round" />
  </g>
</svg>

